<svg width="107" height="16" viewBox="0 0 107 16" fill="none" xmlns="http://www.w3.org/2000/svg">
<path d="M9.87861 10.7475H4.34364L3.3737 13.0037C3.13473 13.5589 3.01524 13.9736 3.01524 14.2477C3.01524 14.4656 3.11716 14.6589 3.32099 14.8276C3.53184 14.9892 3.98167 15.0947 4.67046 15.1439V15.5339H0.168685V15.1439C0.766111 15.0384 1.15268 14.9014 1.32839 14.7327C1.68685 14.3953 2.08396 13.71 2.51973 12.6768L7.54865 0.911058H7.91765L12.8939 12.8033C13.2945 13.7592 13.6565 14.3813 13.9798 14.6694C14.3101 14.9506 14.767 15.1087 15.3503 15.1439V15.5339H9.70993V15.1439C10.2792 15.1157 10.6623 15.0209 10.8591 14.8592C11.0629 14.6975 11.1648 14.5007 11.1648 14.2688C11.1648 13.9595 11.0243 13.4711 10.7431 12.8033L9.87861 10.7475ZM9.58341 9.96733L7.15857 4.18987L4.67046 9.96733H9.58341ZM22.0556 7.60574L27.327 12.8455C28.1915 13.71 28.9295 14.3004 29.541 14.6167C30.1524 14.926 30.7639 15.1017 31.3754 15.1439V15.5339H24.5753V15.1439C24.9829 15.1439 25.2746 15.0771 25.4503 14.9435C25.6331 14.803 25.7245 14.6483 25.7245 14.4797C25.7245 14.311 25.6893 14.1599 25.619 14.0263C25.5558 13.8928 25.3379 13.6433 24.9654 13.2778L20.0313 8.39645V13.0037C20.0313 13.7276 20.077 14.2055 20.1684 14.4375C20.2387 14.6132 20.3863 14.7643 20.6112 14.8908C20.9134 15.0595 21.2332 15.1439 21.5706 15.1439H22.0556V15.5339H15.9618V15.1439H16.4679C17.0583 15.1439 17.487 14.9717 17.7541 14.6273C17.9228 14.4023 18.0071 13.8611 18.0071 13.0037V3.76816C18.0071 3.04422 17.9614 2.56277 17.8701 2.32379C17.7998 2.15511 17.6557 2.00751 17.4378 1.881C17.1286 1.71231 16.8052 1.62797 16.4679 1.62797H15.9618V1.23789H22.0556V1.62797H21.5706C21.2402 1.62797 20.9204 1.7088 20.6112 1.87045C20.3933 1.98291 20.2422 2.1516 20.1579 2.37651C20.0735 2.60142 20.0313 3.06531 20.0313 3.76816V8.14343C20.1719 8.00988 20.6534 7.56357 21.4757 6.80449C23.5632 4.89273 24.8248 3.61705 25.2606 2.97745C25.4503 2.69631 25.5452 2.45031 25.5452 2.23945C25.5452 2.0778 25.4714 1.93722 25.3238 1.81774C25.1762 1.69123 24.9267 1.62797 24.5753 1.62797H24.2485V1.23789H29.4988V1.62797C29.1895 1.635 28.9084 1.67717 28.6554 1.75448C28.4023 1.8318 28.0931 1.98291 27.7276 2.20782C27.3621 2.42571 26.9123 2.78065 26.3781 3.27265C26.2235 3.41322 25.5101 4.13364 24.2379 5.43392L22.0556 7.60574ZM41.0853 10.7475H35.5504L34.5804 13.0037C34.3414 13.5589 34.222 13.9736 34.222 14.2477C34.222 14.4656 34.3239 14.6589 34.5277 14.8276C34.7386 14.9892 35.1884 15.0947 35.8772 15.1439V15.5339H31.3754V15.1439C31.9728 15.0384 32.3594 14.9014 32.5351 14.7327C32.8936 14.3953 33.2907 13.71 33.7265 12.6768L38.7554 0.911058H39.1244L44.1006 12.8033C44.5012 13.7592 44.8632 14.3813 45.1865 14.6694C45.5168 14.9506 45.9737 15.1087 46.557 15.1439V15.5339H40.9166V15.1439C41.486 15.1157 41.869 15.0209 42.0658 14.8592C42.2696 14.6975 42.3716 14.5007 42.3716 14.2688C42.3716 13.9595 42.231 13.4711 41.9498 12.8033L41.0853 10.7475ZM40.7901 9.96733L38.3653 4.18987L35.8772 9.96733H40.7901ZM46.5254 1.23789H50.4052L59.1452 11.9599V3.71545C59.1452 2.83688 59.0468 2.28865 58.85 2.07077C58.5899 1.77557 58.1787 1.62797 57.6165 1.62797H57.1209V1.23789H62.0972V1.62797H61.5911C60.9866 1.62797 60.5579 1.81071 60.3049 2.1762C60.1502 2.40111 60.0729 2.91419 60.0729 3.71545V15.7659H59.6934L50.2681 4.25313V13.0564C50.2681 13.9349 50.363 14.4832 50.5528 14.7011C50.8199 14.9963 51.231 15.1439 51.7863 15.1439H52.2923V15.5339H47.3161V15.1439H47.8116C48.4231 15.1439 48.8554 14.9611 49.1084 14.5956C49.263 14.3707 49.3404 13.8576 49.3404 13.0564V3.11451C48.9257 2.62954 48.6094 2.30974 48.3915 2.15511C48.1806 2.00048 47.8679 1.8564 47.4532 1.72285C47.2494 1.6596 46.9401 1.62797 46.5254 1.62797V1.23789ZM66.9258 2.01805V7.669H70.0675C70.8828 7.669 71.4275 7.546 71.7017 7.3C72.0671 6.97669 72.271 6.40738 72.3131 5.59207H72.7032V10.5683H72.3131C72.2147 9.87245 72.1163 9.42613 72.0179 9.22934C71.8914 8.98334 71.6841 8.79005 71.3959 8.64948C71.1077 8.50891 70.6649 8.43862 70.0675 8.43862H66.9258V13.1513C66.9258 13.7838 66.9539 14.1704 67.0101 14.311C67.0663 14.4445 67.1647 14.5535 67.3053 14.6378C67.4459 14.7151 67.713 14.7538 68.1066 14.7538H70.5314C71.3397 14.7538 71.9266 14.6975 72.292 14.5851C72.6575 14.4726 73.009 14.2512 73.3463 13.9209C73.7821 13.4851 74.2284 12.8279 74.6853 11.9494H75.107L73.8735 15.5339H62.8562V15.1439H63.3623C63.6997 15.1439 64.0195 15.063 64.3217 14.9014C64.5466 14.7889 64.6977 14.6202 64.775 14.3953C64.8594 14.1704 64.9015 13.71 64.9015 13.0142V3.72599C64.9015 2.81931 64.8102 2.26054 64.6274 2.04968C64.3744 1.76854 63.9527 1.62797 63.3623 1.62797H62.8562V1.23789H73.8735L74.0316 4.3691H73.6204C73.4728 3.61705 73.3077 3.10045 73.1249 2.81931C72.9492 2.53817 72.6856 2.32379 72.3342 2.1762C72.0531 2.07077 71.5576 2.01805 70.8477 2.01805H66.9258ZM85.9028 1.23789H90.8896V1.62797H90.6155C90.4327 1.62797 90.1656 1.7088 89.8142 1.87045C89.4628 2.03211 89.143 2.26405 88.8548 2.56628C88.5666 2.86851 88.2117 3.3605 87.79 4.04227L84.3425 9.47182V13.0564C84.3425 13.9349 84.4409 14.4832 84.6377 14.7011C84.9048 14.9963 85.3265 15.1439 85.9028 15.1439H86.3667V15.5339H80.294V15.1439H80.8001C81.4046 15.1439 81.8333 14.9611 82.0863 14.5956C82.241 14.3707 82.3183 13.8576 82.3183 13.0564V9.67213L78.3963 3.68382C77.9325 2.98096 77.6162 2.54168 77.4475 2.36597C77.2858 2.19025 76.9449 1.9794 76.4248 1.7334C76.2843 1.66311 76.0804 1.62797 75.8134 1.62797V1.23789H81.9282V1.62797H81.6119C81.2816 1.62797 80.9758 1.70528 80.6947 1.85991C80.4206 2.01454 80.2835 2.24648 80.2835 2.55574C80.2835 2.80876 80.4979 3.26562 80.9266 3.9263L83.9102 8.53351L86.7146 4.12662C87.1363 3.46593 87.3472 2.97393 87.3472 2.65062C87.3472 2.45382 87.2945 2.27811 87.189 2.12348C87.0906 1.96885 86.9466 1.84937 86.7568 1.76503C86.567 1.67365 86.2824 1.62797 85.9028 1.62797V1.23789ZM101.095 10.7475H95.56L94.5901 13.0037C94.3511 13.5589 94.2316 13.9736 94.2316 14.2477C94.2316 14.4656 94.3335 14.6589 94.5374 14.8276C94.7482 14.9892 95.1981 15.0947 95.8869 15.1439V15.5339H91.3851V15.1439C91.9825 15.0384 92.3691 14.9014 92.5448 14.7327C92.9032 14.3953 93.3004 13.71 93.7361 12.6768L98.765 0.911058H99.134L104.11 12.8033C104.511 13.7592 104.873 14.3813 105.196 14.6694C105.526 14.9506 105.983 15.1087 106.567 15.1439V15.5339H100.926V15.1439C101.496 15.1157 101.879 15.0209 102.075 14.8592C102.279 14.6975 102.381 14.5007 102.381 14.2688C102.381 13.9595 102.241 13.4711 101.96 12.8033L101.095 10.7475ZM100.8 9.96733L98.375 4.18987L95.8869 9.96733H100.8Z" fill="white" style="mix-blend-mode:difference"/>
</svg>
